<svg width="360" height="429" viewBox="0 0 360 429" fill="none" xmlns="http://www.w3.org/2000/svg">
<path d="M0 20.0264C0 5.08135 15.7946 -4.58394 29.1022 2.21773L349.102 165.773C355.791 169.192 360 176.07 360 183.582V408.343C360 419.389 351.046 428.343 340 428.343H20C8.95432 428.343 0 419.389 0 408.343V20.0264Z" fill="#FEAB6B"/>
<path d="M0 20.0264C0 5.08135 15.7946 -4.58394 29.1022 2.21773L349.102 165.773C355.791 169.192 360 176.07 360 183.582V408.343C360 419.389 351.046 428.343 340 428.343H20C8.95432 428.343 0 419.389 0 408.343V20.0264Z" fill="url(#paint0_linear_672_5198)"/>
<path d="M2 20.0269C2 6.57629 16.2155 -2.12297 28.1924 3.99854L348.192 167.554C354.212 170.631 358 176.821 358 183.582V408.343C358 418.284 349.941 426.343 340 426.343H20C10.0589 426.343 2 418.284 2 408.343V20.0269Z" stroke="#E76F3D" stroke-opacity="0.3" stroke-width="4"/>
<defs>
<linearGradient id="paint0_linear_672_5198" x1="180" y1="163.343" x2="180" y2="387.843" gradientUnits="userSpaceOnUse">
<stop stop-color="#E76F3D" stop-opacity="0"/>
<stop offset="1" stop-color="#E76F3D"/>
</linearGradient>
</defs>
</svg>
