<svg width="360" height="312" viewBox="0 0 360 312" fill="none" xmlns="http://www.w3.org/2000/svg">
<path d="M0 20.0177C0 6.08434 13.8907 -3.57924 26.9546 1.26581L346.955 119.946C354.796 122.854 360 130.334 360 138.697V291.269C360 302.315 351.046 311.269 340 311.269H20C8.95432 311.269 0 302.315 0 291.269V20.0177Z" fill="#FEAB6B"/>
<path d="M0 20.0177C0 6.08434 13.8907 -3.57924 26.9546 1.26581L346.955 119.946C354.796 122.854 360 130.334 360 138.697V291.269C360 302.315 351.046 311.269 340 311.269H20C8.95432 311.269 0 302.315 0 291.269V20.0177Z" fill="url(#paint0_linear_672_5202)"/>
<path d="M2 20.0181C2 7.47813 14.5014 -1.2192 26.2588 3.14111L346.259 121.821C353.316 124.438 358 131.171 358 138.698V291.269C358 301.21 349.941 309.269 340 309.269H20C10.0589 309.269 2 301.21 2 291.269V20.0181Z" stroke="#E76F3D" stroke-opacity="0.3" stroke-width="4"/>
<defs>
<linearGradient id="paint0_linear_672_5202" x1="180" y1="118.979" x2="180" y2="281.881" gradientUnits="userSpaceOnUse">
<stop stop-color="#E76F3D" stop-opacity="0"/>
<stop offset="1" stop-color="#E76F3D"/>
</linearGradient>
</defs>
</svg>
