<svg width="360" height="312" viewBox="0 0 360 312" fill="none" xmlns="http://www.w3.org/2000/svg">
<path d="M360 20.0177C360 6.08434 346.109 -3.57924 333.045 1.26581L13.0454 119.946C5.20392 122.854 0 130.334 0 138.697V291.269C0 302.315 8.95432 311.269 20 311.269H340C351.046 311.269 360 302.315 360 291.269V20.0177Z" fill="#FEAB6B"/>
<path d="M360 20.0177C360 6.08434 346.109 -3.57924 333.045 1.26581L13.0454 119.946C5.20392 122.854 0 130.334 0 138.697V291.269C0 302.315 8.95432 311.269 20 311.269H340C351.046 311.269 360 302.315 360 291.269V20.0177Z" fill="url(#paint0_linear_672_5206)"/>
<path d="M358 20.0181C358 7.47813 345.499 -1.2192 333.741 3.14111L13.7412 121.821C6.68387 124.438 2 131.171 2 138.698V291.269C2 301.21 10.0589 309.269 20 309.269H340C349.941 309.269 358 301.21 358 291.269V20.0181Z" stroke="#E76F3D" stroke-opacity="0.3" stroke-width="4"/>
<defs>
<linearGradient id="paint0_linear_672_5206" x1="180" y1="118.979" x2="180" y2="281.881" gradientUnits="userSpaceOnUse">
<stop stop-color="#E76F3D" stop-opacity="0"/>
<stop offset="1" stop-color="#E76F3D"/>
</linearGradient>
</defs>
</svg>
