<svg width="360" height="429" viewBox="0 0 360 429" fill="none" xmlns="http://www.w3.org/2000/svg">
<path d="M360 20.0264C360 5.08135 344.205 -4.58394 330.898 2.21773L10.8978 165.773C4.20908 169.192 0 176.07 0 183.582V408.343C0 419.389 8.95432 428.343 20 428.343H340C351.046 428.343 360 419.389 360 408.343V20.0264Z" fill="#FEAB6B"/>
<path d="M360 20.0264C360 5.08135 344.205 -4.58394 330.898 2.21773L10.8978 165.773C4.20908 169.192 0 176.07 0 183.582V408.343C0 419.389 8.95432 428.343 20 428.343H340C351.046 428.343 360 419.389 360 408.343V20.0264Z" fill="url(#paint0_linear_672_5210)"/>
<path d="M358 20.0269C358 6.57629 343.784 -2.12297 331.808 3.99854L11.8076 167.554C5.78811 170.631 2.00017 176.821 2 183.582V408.343C2 418.284 10.0589 426.343 20 426.343H340C349.941 426.343 358 418.284 358 408.343V20.0269Z" stroke="#E76F3D" stroke-opacity="0.3" stroke-width="4"/>
<defs>
<linearGradient id="paint0_linear_672_5210" x1="180" y1="163.343" x2="180" y2="387.843" gradientUnits="userSpaceOnUse">
<stop stop-color="#E76F3D" stop-opacity="0"/>
<stop offset="1" stop-color="#E76F3D"/>
</linearGradient>
</defs>
</svg>
